<?xml version="1.0" standalone="no"?>
<!DOCTYPE svg PUBLIC "-//W3C//DTD SVG 20010904//EN"
 "http://www.w3.org/TR/2001/REC-SVG-20010904/DTD/svg10.dtd">
<svg version="1.0" xmlns="http://www.w3.org/2000/svg"
 width="37.000000pt" height="37.000000pt" viewBox="0 0 37.000000 37.000000"
 preserveAspectRatio="xMidYMid meet">

<g transform="translate(0.000000,37.000000) scale(0.100000,-0.100000)"
fill="#000000" stroke="none">
<path d="M124 360 c-44 -14 -102 -77 -115 -124 -21 -78 9 -159 76 -204 17 -12
41 -22 53 -22 20 0 22 5 22 60 0 57 -1 60 -25 60 -21 0 -25 5 -25 30 0 25 4
30 25 30 22 0 25 4 25 39 0 47 26 71 77 71 28 0 33 -4 33 -24 0 -18 -6 -25
-22 -28 -17 -2 -24 -11 -26 -30 -3 -24 0 -28 23 -28 23 0 26 -4 23 -27 -2 -20
-9 -29 -25 -31 -21 -3 -23 -9 -23 -63 0 -68 11 -74 65 -37 56 38 80 84 80 153
0 69 -24 115 -80 154 -37 25 -115 35 -161 21z"/>
</g>
</svg>
