<?xml version="1.0" standalone="no"?>
<!DOCTYPE svg PUBLIC "-//W3C//DTD SVG 20010904//EN"
 "http://www.w3.org/TR/2001/REC-SVG-20010904/DTD/svg10.dtd">
<svg version="1.0" xmlns="http://www.w3.org/2000/svg"
 width="37.000000pt" height="37.000000pt" viewBox="0 0 37.000000 37.000000"
 preserveAspectRatio="xMidYMid meet">

<g transform="translate(0.000000,37.000000) scale(0.100000,-0.100000)"
fill="#000000" stroke="none">
<path d="M124 360 c-44 -14 -102 -77 -115 -124 -21 -80 9 -159 79 -207 50 -34
144 -34 194 0 59 41 83 85 83 156 0 69 -24 115 -80 154 -37 25 -115 35 -161
21z m169 -81 c25 -31 24 -158 -2 -190 -17 -22 -27 -24 -101 -24 -106 0 -120
14 -120 119 0 111 23 129 150 120 40 -3 60 -10 73 -25z"/>
<path d="M111 271 c-19 -12 -28 -130 -12 -160 10 -19 20 -21 91 -21 71 0 81 2
91 21 16 30 7 148 -12 160 -7 5 -43 9 -79 9 -36 0 -72 -4 -79 -9z m157 -22
c-2 -6 -8 -10 -13 -10 -5 0 -11 4 -13 10 -2 6 4 11 13 11 9 0 15 -5 13 -11z
m-37 -20 c29 -29 23 -79 -13 -99 -25 -13 -31 -13 -55 0 -53 30 -32 120 27 120
11 0 29 -9 41 -21z"/>
<path d="M160 205 c-6 -8 -9 -23 -5 -35 9 -28 61 -28 70 0 8 25 -10 50 -35 50
-10 0 -23 -7 -30 -15z"/>
</g>
</svg>
