<?xml version="1.0" standalone="no"?>
<!DOCTYPE svg PUBLIC "-//W3C//DTD SVG 20010904//EN"
 "http://www.w3.org/TR/2001/REC-SVG-20010904/DTD/svg10.dtd">
<svg version="1.0" xmlns="http://www.w3.org/2000/svg"
 width="37.000000pt" height="37.000000pt" viewBox="0 0 37.000000 37.000000"
 preserveAspectRatio="xMidYMid meet">

<g transform="translate(0.000000,37.000000) scale(0.100000,-0.100000)"
fill="#000000" stroke="none">
<path d="M124 360 c-44 -14 -102 -77 -115 -124 -21 -80 9 -159 79 -207 50 -34
144 -34 194 0 59 41 83 85 83 156 0 69 -24 115 -80 154 -37 25 -115 35 -161
21z m0 -67 c10 -26 -23 -48 -42 -29 -8 8 -12 22 -9 30 8 21 43 20 51 -1z m-4
-134 c0 -78 -1 -80 -22 -77 -21 3 -23 9 -26 67 -4 76 1 91 28 91 18 0 20 -6
20 -81z m166 56 c10 -15 14 -41 12 -77 -3 -46 -6 -53 -25 -56 -21 -3 -23 0
-23 52 0 57 -7 70 -34 60 -12 -5 -16 -20 -16 -60 0 -51 -1 -54 -25 -54 -25 0
-25 1 -25 78 l0 79 60 0 c53 1 63 -2 76 -22z"/>
</g>
</svg>
