<?xml version="1.0" standalone="no"?>
<!DOCTYPE svg PUBLIC "-//W3C//DTD SVG 20010904//EN"
 "http://www.w3.org/TR/2001/REC-SVG-20010904/DTD/svg10.dtd">
<svg version="1.0" xmlns="http://www.w3.org/2000/svg"
 width="27.000000pt" height="24.000000pt" viewBox="0 0 27.000000 24.000000"
 preserveAspectRatio="xMidYMid meet">

<g transform="translate(0.000000,24.000000) scale(0.100000,-0.100000)"
fill="#000000" stroke="none">
<path d="M118 213 c-8 -10 -36 -56 -62 -102 -38 -66 -45 -85 -35 -92 23 -14
215 -11 227 4 7 8 -6 39 -46 110 -31 53 -59 97 -63 97 -3 0 -13 -8 -21 -17z
m40 -85 c-3 -27 -1 -51 3 -54 17 -10 9 -43 -11 -49 -33 -10 -38 2 -35 80 4 86
10 102 32 83 11 -9 14 -25 11 -60z"/>
</g>
</svg>
