<?xml version="1.0" standalone="no"?>
<!DOCTYPE svg PUBLIC "-//W3C//DTD SVG 20010904//EN"
 "http://www.w3.org/TR/2001/REC-SVG-20010904/DTD/svg10.dtd">
<svg version="1.0" xmlns="http://www.w3.org/2000/svg"
 width="37.000000pt" height="37.000000pt" viewBox="0 0 37.000000 37.000000"
 preserveAspectRatio="xMidYMid meet">

<g transform="translate(0.000000,37.000000) scale(0.100000,-0.100000)"
fill="#000000" stroke="none">
<path d="M124 360 c-44 -14 -102 -77 -115 -124 -21 -80 9 -159 79 -207 50 -34
144 -34 194 0 59 41 83 85 83 156 0 69 -24 115 -80 154 -37 25 -115 35 -161
21z m146 -107 c-1 -24 -26 -129 -34 -142 -5 -7 -15 -5 -32 6 -19 12 -28 13
-37 4 -17 -17 -27 -13 -27 11 0 12 18 37 42 60 50 46 43 49 -17 8 -37 -26 -48
-29 -71 -20 -15 6 -24 14 -20 18 9 9 166 70 184 71 6 1 12 -7 12 -16z"/>
</g>
</svg>
