<?xml version="1.0" standalone="no"?>
<!DOCTYPE svg PUBLIC "-//W3C//DTD SVG 20010904//EN"
 "http://www.w3.org/TR/2001/REC-SVG-20010904/DTD/svg10.dtd">
<svg version="1.0" xmlns="http://www.w3.org/2000/svg"
 width="37.000000pt" height="37.000000pt" viewBox="0 0 37.000000 37.000000"
 preserveAspectRatio="xMidYMid meet">

<g transform="translate(0.000000,37.000000) scale(0.100000,-0.100000)"
fill="#000000" stroke="none">
<path d="M124 360 c-44 -14 -102 -77 -115 -124 -21 -80 9 -159 79 -207 50 -34
144 -34 194 0 59 41 83 85 83 156 0 69 -24 115 -80 154 -37 25 -115 35 -161
21z m158 -94 c20 0 32 -22 18 -31 -6 -4 -10 -15 -10 -26 0 -11 -9 -38 -21 -60
-25 -50 -92 -84 -145 -75 -37 8 -56 26 -25 26 25 0 36 16 19 27 -22 14 -35 46
-36 91 -1 23 1 42 4 42 3 0 17 -9 31 -20 30 -23 73 -27 73 -6 0 20 42 48 60
40 8 -4 23 -7 32 -8z"/>
</g>
</svg>
