<?xml version="1.0" standalone="no"?>
<!DOCTYPE svg PUBLIC "-//W3C//DTD SVG 20010904//EN"
 "http://www.w3.org/TR/2001/REC-SVG-20010904/DTD/svg10.dtd">
<svg version="1.0" xmlns="http://www.w3.org/2000/svg"
 width="37.000000pt" height="37.000000pt" viewBox="0 0 37.000000 37.000000"
 preserveAspectRatio="xMidYMid meet">

<g transform="translate(0.000000,37.000000) scale(0.100000,-0.100000)"
fill="#000000" stroke="none">
<path d="M124 360 c-44 -14 -102 -77 -115 -124 -21 -80 9 -159 79 -207 50 -34
144 -34 194 0 59 41 83 85 83 156 0 69 -24 115 -80 154 -37 25 -115 35 -161
21z m148 -87 c40 -41 48 -99 19 -146 -27 -45 -60 -57 -146 -55 l-70 2 -3 78
c-2 87 10 117 57 144 41 23 107 12 143 -23z"/>
<path d="M154 280 c-12 -4 -31 -21 -43 -37 -18 -22 -21 -36 -17 -68 3 -22 6
-48 7 -57 0 -13 14 -18 56 -24 46 -5 59 -3 81 13 63 46 62 125 -2 164 -34 21
-50 22 -82 9z m10 -74 c-7 -18 24 -41 55 -41 32 0 36 -29 4 -33 -48 -7 -112
65 -91 102 10 18 11 18 24 2 7 -10 10 -24 8 -30z"/>
</g>
</svg>
